<svg xmlns="http://www.w3.org/2000/svg" xmlns:xlink="http://www.w3.org/1999/xlink" width="500" zoomAndPan="magnify" viewBox="0 0 375 374.999991" height="500" preserveAspectRatio="xMidYMid meet" version="1.0"><defs><g/><clipPath id="4c4f95ecce"><path d="M 167 124 L 207 124 L 207 178 L 167 178 Z M 167 124 " clip-rule="nonzero"/></clipPath><clipPath id="81cdcdba23"><path d="M 194.753906 124.605469 L 206.828125 131.890625 L 179.539062 177.105469 L 167.464844 169.820312 Z M 194.753906 124.605469 " clip-rule="nonzero"/></clipPath><clipPath id="0cc3f628f4"><path d="M 168 131 L 196 131 L 196 159 L 168 159 Z M 168 131 " clip-rule="nonzero"/></clipPath><clipPath id="b6b18afd63"><path d="M 178.839844 131.804688 L 195.296875 141.738281 L 185.175781 158.5 L 168.722656 148.570312 Z M 178.839844 131.804688 " clip-rule="nonzero"/></clipPath><clipPath id="ca6e48ea1e"><path d="M 187 133 L 214 133 L 214 159 L 187 159 Z M 187 133 " clip-rule="nonzero"/></clipPath><clipPath id="e7500ece72"><path d="M 197.007812 133.59375 L 213.460938 143.527344 L 204.421875 158.5 L 187.96875 148.570312 Z M 197.007812 133.59375 " clip-rule="nonzero"/></clipPath></defs><rect x="-37.5" width="450" fill="#ffffff" y="-37.499999" height="449.999989" fill-opacity="1"/><rect x="-37.5" width="450" fill="#ffffff" y="-37.499999" height="449.999989" fill-opacity="1"/><g fill="#3d3b3a" fill-opacity="1"><g transform="translate(74.13942, 238.401197)"><g><path d="M 9.125 -2.65625 L 3.203125 -2.65625 L 2.078125 0 L 0.015625 0 L 5.203125 -11.734375 L 7.21875 -11.734375 L 12.359375 0 L 10.25 0 Z M 8.359375 -4.40625 L 6.15625 -9.625 L 3.9375 -4.40625 Z M 8.359375 -4.40625 "/></g></g></g><g fill="#3d3b3a" fill-opacity="1"><g transform="translate(93.22618, 238.401197)"><g><path d="M 11.71875 0 L 9.78125 0 L 3.515625 -8.421875 L 3.515625 0 L 1.546875 0 L 1.546875 -11.734375 L 3.484375 -11.734375 L 9.78125 -3.296875 L 9.78125 -11.734375 L 11.71875 -11.734375 Z M 11.71875 0 "/></g></g></g><g fill="#3d3b3a" fill-opacity="1"><g transform="translate(113.218593, 238.401197)"><g><path d="M 9.578125 -5.765625 L 11.296875 -5.765625 L 11.296875 -1.4375 C 10.691406 -0.976562 9.976562 -0.609375 9.15625 -0.328125 C 8.34375 -0.0546875 7.535156 0.078125 6.734375 0.078125 C 5.003906 0.078125 3.539062 -0.492188 2.34375 -1.640625 C 1.15625 -2.785156 0.5625 -4.191406 0.5625 -5.859375 C 0.5625 -7.535156 1.164062 -8.941406 2.375 -10.078125 C 3.582031 -11.210938 5.078125 -11.78125 6.859375 -11.78125 C 7.679688 -11.78125 8.492188 -11.628906 9.296875 -11.328125 C 10.097656 -11.035156 10.785156 -10.640625 11.359375 -10.140625 L 10.25 -8.6875 C 9.28125 -9.582031 8.148438 -10.03125 6.859375 -10.03125 C 5.660156 -10.03125 4.644531 -9.625 3.8125 -8.8125 C 2.988281 -8.007812 2.578125 -7.03125 2.578125 -5.875 C 2.578125 -4.695312 2.992188 -3.703125 3.828125 -2.890625 C 4.660156 -2.085938 5.675781 -1.6875 6.875 -1.6875 C 7.78125 -1.6875 8.679688 -1.957031 9.578125 -2.5 Z M 9.578125 -5.765625 "/></g></g></g><g fill="#3d3b3a" fill-opacity="1"><g transform="translate(132.489831, 238.401197)"><g><path d="M 9.921875 -9.953125 L 3.515625 -9.953125 L 3.515625 -6.796875 L 9.25 -6.796875 L 9.25 -5.015625 L 3.515625 -5.015625 L 3.515625 -1.78125 L 10.125 -1.78125 L 10.125 0 L 1.546875 0 L 1.546875 -11.734375 L 9.921875 -11.734375 Z M 9.921875 -9.953125 "/></g></g></g><g fill="#3d3b3a" fill-opacity="1"><g transform="translate(150.201334, 238.401197)"><g><path d="M 3.515625 -1.796875 L 8.59375 -1.796875 L 8.59375 0 L 1.546875 0 L 1.546875 -11.734375 L 3.515625 -11.734375 Z M 3.515625 -1.796875 "/></g></g></g><g fill="#3d3b3a" fill-opacity="1"><g transform="translate(165.866726, 238.401197)"><g><path d="M 9.125 -2.65625 L 3.203125 -2.65625 L 2.078125 0 L 0.015625 0 L 5.203125 -11.734375 L 7.21875 -11.734375 L 12.359375 0 L 10.25 0 Z M 8.359375 -4.40625 L 6.15625 -9.625 L 3.9375 -4.40625 Z M 8.359375 -4.40625 "/></g></g></g><g fill="#3d3b3a" fill-opacity="1"><g transform="translate(184.953482, 238.401197)"><g/></g></g><g fill="#3d3b3a" fill-opacity="1"><g transform="translate(195.989959, 238.401197)"><g><path d="M 5.40625 -11.8125 C 6.914062 -11.8125 8.28125 -11.410156 9.5 -10.609375 L 8.6875 -8.875 C 7.488281 -9.59375 6.34375 -9.953125 5.25 -9.953125 C 4.65625 -9.953125 4.1875 -9.847656 3.84375 -9.640625 C 3.507812 -9.429688 3.34375 -9.128906 3.34375 -8.734375 C 3.34375 -8.335938 3.5 -8.003906 3.8125 -7.734375 C 4.125 -7.460938 4.515625 -7.257812 4.984375 -7.125 C 5.453125 -7 5.957031 -6.835938 6.5 -6.640625 C 7.050781 -6.453125 7.5625 -6.25 8.03125 -6.03125 C 8.5 -5.8125 8.882812 -5.46875 9.1875 -5 C 9.5 -4.539062 9.65625 -3.976562 9.65625 -3.3125 C 9.65625 -2.289062 9.242188 -1.472656 8.421875 -0.859375 C 7.597656 -0.242188 6.535156 0.0625 5.234375 0.0625 C 4.335938 0.0625 3.46875 -0.101562 2.625 -0.4375 C 1.789062 -0.769531 1.0625 -1.222656 0.4375 -1.796875 L 1.296875 -3.5 C 1.878906 -2.957031 2.523438 -2.535156 3.234375 -2.234375 C 3.953125 -1.941406 4.628906 -1.796875 5.265625 -1.796875 C 5.953125 -1.796875 6.488281 -1.921875 6.875 -2.171875 C 7.257812 -2.421875 7.453125 -2.769531 7.453125 -3.21875 C 7.453125 -3.625 7.296875 -3.960938 6.984375 -4.234375 C 6.671875 -4.503906 6.28125 -4.703125 5.8125 -4.828125 C 5.34375 -4.960938 4.832031 -5.117188 4.28125 -5.296875 C 3.738281 -5.484375 3.234375 -5.679688 2.765625 -5.890625 C 2.296875 -6.097656 1.90625 -6.429688 1.59375 -6.890625 C 1.28125 -7.347656 1.125 -7.898438 1.125 -8.546875 C 1.125 -9.546875 1.515625 -10.335938 2.296875 -10.921875 C 3.078125 -11.515625 4.113281 -11.8125 5.40625 -11.8125 Z M 5.40625 -11.8125 "/></g></g></g><g fill="#3d3b3a" fill-opacity="1"><g transform="translate(213.131227, 238.401197)"><g><path d="M 9.921875 -9.953125 L 3.515625 -9.953125 L 3.515625 -6.796875 L 9.25 -6.796875 L 9.25 -5.015625 L 3.515625 -5.015625 L 3.515625 -1.78125 L 10.125 -1.78125 L 10.125 0 L 1.546875 0 L 1.546875 -11.734375 L 9.921875 -11.734375 Z M 9.921875 -9.953125 "/></g></g></g><g fill="#3d3b3a" fill-opacity="1"><g transform="translate(230.842722, 238.401197)"><g><path d="M 9.578125 -5.765625 L 11.296875 -5.765625 L 11.296875 -1.4375 C 10.691406 -0.976562 9.976562 -0.609375 9.15625 -0.328125 C 8.34375 -0.0546875 7.535156 0.078125 6.734375 0.078125 C 5.003906 0.078125 3.539062 -0.492188 2.34375 -1.640625 C 1.15625 -2.785156 0.5625 -4.191406 0.5625 -5.859375 C 0.5625 -7.535156 1.164062 -8.941406 2.375 -10.078125 C 3.582031 -11.210938 5.078125 -11.78125 6.859375 -11.78125 C 7.679688 -11.78125 8.492188 -11.628906 9.296875 -11.328125 C 10.097656 -11.035156 10.785156 -10.640625 11.359375 -10.140625 L 10.25 -8.6875 C 9.28125 -9.582031 8.148438 -10.03125 6.859375 -10.03125 C 5.660156 -10.03125 4.644531 -9.625 3.8125 -8.8125 C 2.988281 -8.007812 2.578125 -7.03125 2.578125 -5.875 C 2.578125 -4.695312 2.992188 -3.703125 3.828125 -2.890625 C 4.660156 -2.085938 5.675781 -1.6875 6.875 -1.6875 C 7.78125 -1.6875 8.679688 -1.957031 9.578125 -2.5 Z M 9.578125 -5.765625 "/></g></g></g><g fill="#3d3b3a" fill-opacity="1"><g transform="translate(250.113958, 238.401197)"><g><path d="M 11.515625 -11.734375 L 11.515625 -4.859375 C 11.515625 -3.328125 11.0625 -2.117188 10.15625 -1.234375 C 9.25 -0.359375 8.003906 0.078125 6.421875 0.078125 C 4.835938 0.078125 3.585938 -0.359375 2.671875 -1.234375 C 1.765625 -2.117188 1.3125 -3.328125 1.3125 -4.859375 L 1.3125 -11.734375 L 3.28125 -11.734375 L 3.28125 -4.859375 C 3.28125 -3.878906 3.5625 -3.101562 4.125 -2.53125 C 4.695312 -1.96875 5.46875 -1.6875 6.4375 -1.6875 C 7.394531 -1.6875 8.148438 -1.96875 8.703125 -2.53125 C 9.265625 -3.09375 9.546875 -3.867188 9.546875 -4.859375 L 9.546875 -11.734375 Z M 11.515625 -11.734375 "/></g></g></g><g fill="#3d3b3a" fill-opacity="1"><g transform="translate(269.636771, 238.401197)"><g><path d="M 8.984375 0 L 6.84375 -3.546875 C 6.726562 -3.535156 6.546875 -3.53125 6.296875 -3.53125 L 3.515625 -3.53125 L 3.515625 0 L 1.546875 0 L 1.546875 -11.734375 L 6.296875 -11.734375 C 7.796875 -11.734375 8.957031 -11.382812 9.78125 -10.6875 C 10.613281 -9.988281 11.03125 -9.003906 11.03125 -7.734375 C 11.03125 -6.796875 10.820312 -6 10.40625 -5.34375 C 9.988281 -4.695312 9.382812 -4.222656 8.59375 -3.921875 L 11.234375 0 Z M 3.515625 -5.3125 L 6.296875 -5.3125 C 8.203125 -5.3125 9.15625 -6.097656 9.15625 -7.671875 C 9.15625 -9.191406 8.203125 -9.953125 6.296875 -9.953125 L 3.515625 -9.953125 Z M 3.515625 -5.3125 "/></g></g></g><g fill="#3d3b3a" fill-opacity="1"><g transform="translate(288.471973, 238.401197)"><g><path d="M 9.125 -2.65625 L 3.203125 -2.65625 L 2.078125 0 L 0.015625 0 L 5.203125 -11.734375 L 7.21875 -11.734375 L 12.359375 0 L 10.25 0 Z M 8.359375 -4.40625 L 6.15625 -9.625 L 3.9375 -4.40625 Z M 8.359375 -4.40625 "/></g></g></g><g fill="#3d3b3a" fill-opacity="1"><g transform="translate(148.713547, 149.928523)"><g><path d="M 55.765625 -0.96875 C 55.984375 -0.96875 56.09375 -0.804688 56.09375 -0.484375 C 56.09375 -0.160156 55.984375 0 55.765625 0 C 54.804688 0 53.253906 -0.0507812 51.109375 -0.15625 C 49.078125 -0.269531 47.578125 -0.328125 46.609375 -0.328125 C 45.484375 -0.328125 44.007812 -0.269531 42.1875 -0.15625 C 40.476562 -0.0507812 39.191406 0 38.328125 0 C 38.117188 0 38.015625 -0.160156 38.015625 -0.484375 C 38.015625 -0.804688 38.117188 -0.96875 38.328125 -0.96875 C 40.523438 -0.96875 42.101562 -1.164062 43.0625 -1.5625 C 44.03125 -1.96875 44.515625 -2.648438 44.515625 -3.609375 C 44.515625 -4.359375 44.222656 -5.40625 43.640625 -6.75 L 36.078125 -23.0625 L 16.953125 -23.0625 L 11.484375 -9.890625 C 10.734375 -8.066406 10.359375 -6.566406 10.359375 -5.390625 C 10.359375 -3.828125 11 -2.695312 12.28125 -2 C 13.570312 -1.3125 15.585938 -0.96875 18.328125 -0.96875 C 18.585938 -0.96875 18.71875 -0.804688 18.71875 -0.484375 C 18.71875 -0.160156 18.585938 0 18.328125 0 C 17.359375 0 15.960938 -0.0507812 14.140625 -0.15625 C 12.109375 -0.269531 10.34375 -0.328125 8.84375 -0.328125 C 7.5 -0.328125 5.914062 -0.269531 4.09375 -0.15625 C 2.488281 -0.0507812 1.175781 0 0.15625 0 C -0.101562 0 -0.234375 -0.160156 -0.234375 -0.484375 C -0.234375 -0.804688 -0.101562 -0.96875 0.15625 -0.96875 C 1.65625 -0.96875 2.925781 -1.234375 3.96875 -1.765625 C 5.019531 -2.304688 6.015625 -3.269531 6.953125 -4.65625 C 7.890625 -6.050781 8.894531 -8.035156 9.96875 -10.609375 L 26.765625 -51.03125 C 26.867188 -51.1875 27.039062 -51.265625 27.28125 -51.265625 C 27.519531 -51.265625 27.664062 -51.1875 27.71875 -51.03125 L 46.375 -11.015625 C 47.601562 -8.273438 48.695312 -6.195312 49.65625 -4.78125 C 50.625 -3.363281 51.578125 -2.375 52.515625 -1.8125 C 53.453125 -1.25 54.535156 -0.96875 55.765625 -0.96875 Z M 17.59375 -24.515625 L 35.359375 -24.515625 L 25.953125 -44.6875 Z M 17.59375 -24.515625 "/></g></g></g><g fill="#3d3b3a" fill-opacity="1"><g transform="translate(187.139618, 189.169223)"><g><path d="M 11.09375 -40.5 C 11.09375 -38.351562 11.597656 -36.503906 12.609375 -34.953125 C 13.628906 -33.398438 14.875 -32.097656 16.34375 -31.046875 C 17.820312 -30.003906 19.875 -28.707031 22.5 -27.15625 C 25.28125 -25.5 27.4375 -24.117188 28.96875 -23.015625 C 30.5 -21.921875 31.8125 -20.515625 32.90625 -18.796875 C 34 -17.085938 34.546875 -15.023438 34.546875 -12.609375 C 34.546875 -10.097656 33.929688 -7.8125 32.703125 -5.75 C 31.472656 -3.6875 29.640625 -2.050781 27.203125 -0.84375 C 24.765625 0.363281 21.773438 0.96875 18.234375 0.96875 C 16.359375 0.96875 14.578125 0.765625 12.890625 0.359375 C 11.203125 -0.0351562 9.34375 -0.742188 7.3125 -1.765625 C 7.039062 -1.929688 6.863281 -2.117188 6.78125 -2.328125 C 6.707031 -2.546875 6.644531 -2.867188 6.59375 -3.296875 L 5.390625 -13.734375 L 5.390625 -13.828125 C 5.390625 -14.035156 5.519531 -14.148438 5.78125 -14.171875 C 6.050781 -14.203125 6.210938 -14.113281 6.265625 -13.90625 C 6.804688 -10.207031 8.226562 -6.988281 10.53125 -4.25 C 12.832031 -1.519531 15.992188 -0.15625 20.015625 -0.15625 C 22.847656 -0.15625 25.242188 -0.929688 27.203125 -2.484375 C 29.160156 -4.046875 30.140625 -6.484375 30.140625 -9.796875 C 30.140625 -12.210938 29.601562 -14.289062 28.53125 -16.03125 C 27.457031 -17.769531 26.15625 -19.210938 24.625 -20.359375 C 23.101562 -21.515625 21.03125 -22.867188 18.40625 -24.421875 C 15.832031 -25.921875 13.804688 -27.234375 12.328125 -28.359375 C 10.859375 -29.484375 9.597656 -30.890625 8.546875 -32.578125 C 7.503906 -34.265625 6.984375 -36.289062 6.984375 -38.65625 C 6.984375 -41.332031 7.664062 -43.609375 9.03125 -45.484375 C 10.40625 -47.359375 12.1875 -48.765625 14.375 -49.703125 C 16.570312 -50.640625 18.929688 -51.109375 21.453125 -51.109375 C 24.398438 -51.109375 27.453125 -50.46875 30.609375 -49.1875 C 31.421875 -48.863281 31.828125 -48.40625 31.828125 -47.8125 L 32.546875 -39.296875 C 32.546875 -39.078125 32.394531 -38.96875 32.09375 -38.96875 C 31.800781 -38.96875 31.628906 -39.078125 31.578125 -39.296875 C 31.367188 -42.078125 30.328125 -44.566406 28.453125 -46.765625 C 26.578125 -48.960938 23.894531 -50.0625 20.40625 -50.0625 C 17.195312 -50.0625 14.84375 -49.125 13.34375 -47.25 C 11.84375 -45.375 11.09375 -43.125 11.09375 -40.5 Z M 11.09375 -40.5 "/></g></g></g><g clip-path="url(#4c4f95ecce)"><g clip-path="url(#81cdcdba23)"><path fill="#ffffff" d="M 194.753906 124.605469 L 206.828125 131.890625 L 179.527344 177.128906 L 167.453125 169.839844 Z M 194.753906 124.605469 " fill-opacity="1" fill-rule="nonzero"/></g></g><g clip-path="url(#0cc3f628f4)"><g clip-path="url(#b6b18afd63)"><path fill="#ffffff" d="M 178.839844 131.804688 L 195.296875 141.738281 L 185.171875 158.511719 L 168.714844 148.582031 Z M 178.839844 131.804688 " fill-opacity="1" fill-rule="nonzero"/></g></g><g clip-path="url(#ca6e48ea1e)"><g clip-path="url(#e7500ece72)"><path fill="#ffffff" d="M 197.007812 133.59375 L 213.445312 143.515625 L 204.40625 158.492188 L 187.96875 148.570312 Z M 197.007812 133.59375 " fill-opacity="1" fill-rule="nonzero"/></g></g><path stroke-linecap="butt" transform="matrix(0.431053, -0.613753, 0.613753, 0.431053, 162.46394, 183.096667)" fill="none" stroke-linejoin="miter" d="M 0.000741499 1.000182 L 116.884805 0.999484 " stroke="#3d3b3a" stroke-width="2" stroke-opacity="1" stroke-miterlimit="4"/><g fill="#3d3b3a" fill-opacity="1"><g transform="translate(131.181237, 262.353404)"><g><path d="M 3.15625 0.046875 C 2.957031 0.046875 2.722656 0.0351562 2.453125 0.015625 C 2.347656 0.00390625 2.21875 -0.00390625 2.0625 -0.015625 C 1.914062 -0.0234375 1.75 -0.03125 1.5625 -0.03125 L 0.734375 -0.015625 C 0.597656 -0.00390625 0.40625 0 0.15625 0 C 0.132812 0 0.125 -0.0234375 0.125 -0.078125 C 0.125 -0.128906 0.132812 -0.15625 0.15625 -0.15625 C 0.394531 -0.15625 0.570312 -0.175781 0.6875 -0.21875 C 0.800781 -0.257812 0.882812 -0.335938 0.9375 -0.453125 C 1 -0.566406 1.054688 -0.753906 1.109375 -1.015625 L 2.140625 -6.84375 C 2.171875 -7.0625 2.1875 -7.195312 2.1875 -7.25 C 2.1875 -7.425781 2.132812 -7.546875 2.03125 -7.609375 C 1.9375 -7.671875 1.765625 -7.703125 1.515625 -7.703125 C 1.492188 -7.703125 1.484375 -7.726562 1.484375 -7.78125 C 1.484375 -7.832031 1.492188 -7.859375 1.515625 -7.859375 L 2.09375 -7.84375 C 2.4375 -7.832031 2.71875 -7.828125 2.9375 -7.828125 C 3.164062 -7.828125 3.40625 -7.835938 3.65625 -7.859375 C 3.988281 -7.878906 4.234375 -7.890625 4.390625 -7.890625 C 5.097656 -7.890625 5.710938 -7.757812 6.234375 -7.5 C 6.765625 -7.25 7.171875 -6.890625 7.453125 -6.421875 C 7.734375 -5.953125 7.875 -5.414062 7.875 -4.8125 C 7.875 -4.53125 7.851562 -4.28125 7.8125 -4.0625 C 7.664062 -3.257812 7.351562 -2.546875 6.875 -1.921875 C 6.40625 -1.296875 5.835938 -0.8125 5.171875 -0.46875 C 4.515625 -0.125 3.84375 0.046875 3.15625 0.046875 Z M 3.109375 -0.203125 C 3.910156 -0.203125 4.609375 -0.515625 5.203125 -1.140625 C 5.796875 -1.773438 6.191406 -2.65625 6.390625 -3.78125 C 6.453125 -4.113281 6.484375 -4.46875 6.484375 -4.84375 C 6.484375 -5.65625 6.304688 -6.320312 5.953125 -6.84375 C 5.597656 -7.375 5.039062 -7.640625 4.28125 -7.640625 C 3.976562 -7.640625 3.765625 -7.578125 3.640625 -7.453125 C 3.515625 -7.328125 3.425781 -7.113281 3.375 -6.8125 L 2.359375 -1.15625 C 2.335938 -1.019531 2.328125 -0.90625 2.328125 -0.8125 C 2.328125 -0.59375 2.382812 -0.4375 2.5 -0.34375 C 2.613281 -0.25 2.816406 -0.203125 3.109375 -0.203125 Z M 3.109375 -0.203125 "/></g></g></g><g fill="#3d3b3a" fill-opacity="1"><g transform="translate(142.949731, 262.353404)"><g><path d="M 2.171875 -6.28125 C 1.953125 -6.28125 1.773438 -6.34375 1.640625 -6.46875 C 1.515625 -6.601562 1.453125 -6.78125 1.453125 -7 C 1.453125 -7.207031 1.515625 -7.375 1.640625 -7.5 C 1.773438 -7.625 1.953125 -7.6875 2.171875 -7.6875 C 2.390625 -7.6875 2.5625 -7.625 2.6875 -7.5 C 2.8125 -7.375 2.875 -7.207031 2.875 -7 C 2.875 -6.769531 2.8125 -6.59375 2.6875 -6.46875 C 2.5625 -6.34375 2.390625 -6.28125 2.171875 -6.28125 Z M 1.328125 0.109375 C 0.929688 0.109375 0.734375 -0.125 0.734375 -0.59375 C 0.734375 -0.71875 0.753906 -0.894531 0.796875 -1.125 L 1.3125 -3.734375 C 1.332031 -3.847656 1.34375 -3.945312 1.34375 -4.03125 C 1.34375 -4.132812 1.320312 -4.210938 1.28125 -4.265625 C 1.238281 -4.328125 1.1875 -4.359375 1.125 -4.359375 C 0.945312 -4.359375 0.707031 -4.1875 0.40625 -3.84375 C 0.394531 -3.84375 0.378906 -3.84375 0.359375 -3.84375 C 0.328125 -3.84375 0.300781 -3.851562 0.28125 -3.875 C 0.269531 -3.90625 0.273438 -3.9375 0.296875 -3.96875 C 0.585938 -4.3125 0.851562 -4.5625 1.09375 -4.71875 C 1.34375 -4.882812 1.585938 -4.96875 1.828125 -4.96875 C 2.222656 -4.96875 2.421875 -4.75 2.421875 -4.3125 C 2.421875 -4.164062 2.40625 -4.023438 2.375 -3.890625 L 1.84375 -1.125 C 1.832031 -1.039062 1.828125 -0.941406 1.828125 -0.828125 C 1.828125 -0.628906 1.890625 -0.53125 2.015625 -0.53125 C 2.097656 -0.53125 2.191406 -0.566406 2.296875 -0.640625 C 2.398438 -0.710938 2.523438 -0.820312 2.671875 -0.96875 C 2.691406 -0.988281 2.710938 -1 2.734375 -1 C 2.753906 -1 2.769531 -0.984375 2.78125 -0.953125 C 2.800781 -0.921875 2.800781 -0.894531 2.78125 -0.875 C 2.5 -0.53125 2.242188 -0.28125 2.015625 -0.125 C 1.796875 0.03125 1.566406 0.109375 1.328125 0.109375 Z M 1.328125 0.109375 "/></g></g></g><g fill="#3d3b3a" fill-opacity="1"><g transform="translate(149.828787, 262.353404)"><g><path d="M 1.359375 0.140625 C 0.992188 0.140625 0.6875 0.0625 0.4375 -0.09375 C 0.1875 -0.257812 0.0625 -0.453125 0.0625 -0.671875 C 0.0625 -0.867188 0.113281 -1.019531 0.21875 -1.125 C 0.332031 -1.226562 0.46875 -1.28125 0.625 -1.28125 C 0.769531 -1.28125 0.882812 -1.242188 0.96875 -1.171875 C 1.050781 -1.097656 1.144531 -0.976562 1.25 -0.8125 C 1.363281 -0.632812 1.46875 -0.503906 1.5625 -0.421875 C 1.65625 -0.335938 1.789062 -0.296875 1.96875 -0.296875 C 2.101562 -0.296875 2.207031 -0.332031 2.28125 -0.40625 C 2.351562 -0.488281 2.398438 -0.617188 2.421875 -0.796875 C 2.429688 -0.828125 2.4375 -0.875 2.4375 -0.9375 C 2.4375 -1.1875 2.363281 -1.398438 2.21875 -1.578125 C 2.082031 -1.753906 1.863281 -1.957031 1.5625 -2.1875 C 1.257812 -2.4375 1.035156 -2.648438 0.890625 -2.828125 C 0.742188 -3.015625 0.671875 -3.234375 0.671875 -3.484375 C 0.671875 -3.535156 0.675781 -3.609375 0.6875 -3.703125 C 0.726562 -3.921875 0.832031 -4.125 1 -4.3125 C 1.175781 -4.507812 1.398438 -4.671875 1.671875 -4.796875 C 1.953125 -4.921875 2.25 -4.984375 2.5625 -4.984375 C 2.96875 -4.984375 3.28125 -4.914062 3.5 -4.78125 C 3.726562 -4.644531 3.828125 -4.457031 3.796875 -4.21875 C 3.773438 -4.0625 3.707031 -3.9375 3.59375 -3.84375 C 3.476562 -3.75 3.359375 -3.703125 3.234375 -3.703125 C 3.054688 -3.703125 2.925781 -3.742188 2.84375 -3.828125 C 2.757812 -3.910156 2.679688 -4.023438 2.609375 -4.171875 C 2.535156 -4.328125 2.460938 -4.441406 2.390625 -4.515625 C 2.316406 -4.585938 2.195312 -4.625 2.03125 -4.625 C 1.894531 -4.625 1.785156 -4.582031 1.703125 -4.5 C 1.628906 -4.425781 1.585938 -4.335938 1.578125 -4.234375 C 1.566406 -4.203125 1.5625 -4.15625 1.5625 -4.09375 C 1.5625 -3.875 1.628906 -3.675781 1.765625 -3.5 C 1.910156 -3.332031 2.128906 -3.132812 2.421875 -2.90625 C 2.742188 -2.644531 2.976562 -2.421875 3.125 -2.234375 C 3.28125 -2.046875 3.359375 -1.828125 3.359375 -1.578125 C 3.359375 -1.535156 3.347656 -1.460938 3.328125 -1.359375 C 3.285156 -1.128906 3.175781 -0.898438 3 -0.671875 C 2.820312 -0.441406 2.585938 -0.25 2.296875 -0.09375 C 2.015625 0.0625 1.703125 0.140625 1.359375 0.140625 Z M 1.359375 0.140625 "/></g></g></g><g fill="#3d3b3a" fill-opacity="1"><g transform="translate(157.575123, 262.353404)"><g><path d="M 3.390625 -5.015625 C 3.710938 -5.015625 3.960938 -4.957031 4.140625 -4.84375 C 4.316406 -4.738281 4.40625 -4.59375 4.40625 -4.40625 C 4.40625 -4.03125 4.125 -3.675781 3.5625 -3.34375 C 3.007812 -3.007812 2.335938 -2.765625 1.546875 -2.609375 C 1.523438 -2.429688 1.515625 -2.253906 1.515625 -2.078125 C 1.515625 -1.578125 1.617188 -1.171875 1.828125 -0.859375 C 2.035156 -0.554688 2.34375 -0.40625 2.75 -0.40625 C 2.925781 -0.40625 3.117188 -0.4375 3.328125 -0.5 C 3.535156 -0.5625 3.722656 -0.660156 3.890625 -0.796875 L 3.90625 -0.796875 C 3.925781 -0.796875 3.945312 -0.78125 3.96875 -0.75 C 3.988281 -0.726562 3.988281 -0.707031 3.96875 -0.6875 C 3.664062 -0.394531 3.347656 -0.179688 3.015625 -0.046875 C 2.679688 0.0859375 2.347656 0.15625 2.015625 0.15625 C 1.429688 0.15625 0.992188 -0.0195312 0.703125 -0.375 C 0.421875 -0.726562 0.28125 -1.171875 0.28125 -1.703125 C 0.28125 -1.890625 0.300781 -2.097656 0.34375 -2.328125 C 0.425781 -2.773438 0.609375 -3.203125 0.890625 -3.609375 C 1.179688 -4.023438 1.546875 -4.363281 1.984375 -4.625 C 2.421875 -4.882812 2.890625 -5.015625 3.390625 -5.015625 Z M 3.125 -4.078125 C 3.132812 -4.109375 3.140625 -4.15625 3.140625 -4.21875 C 3.140625 -4.363281 3.101562 -4.472656 3.03125 -4.546875 C 2.96875 -4.628906 2.867188 -4.671875 2.734375 -4.671875 C 2.472656 -4.671875 2.238281 -4.5 2.03125 -4.15625 C 1.820312 -3.8125 1.671875 -3.363281 1.578125 -2.8125 C 2.535156 -3.0625 3.050781 -3.484375 3.125 -4.078125 Z M 3.125 -4.078125 "/></g></g></g><g fill="#3d3b3a" fill-opacity="1"><g transform="translate(165.836795, 262.353404)"><g><path d="M 1.859375 -5.90625 C 1.847656 -5.90625 1.832031 -5.914062 1.8125 -5.9375 C 1.789062 -5.957031 1.78125 -5.976562 1.78125 -6 C 1.96875 -6.28125 2.160156 -6.519531 2.359375 -6.71875 C 2.566406 -6.914062 2.789062 -7.015625 3.03125 -7.015625 C 3.125 -7.015625 3.320312 -6.972656 3.625 -6.890625 C 3.769531 -6.835938 3.925781 -6.789062 4.09375 -6.75 C 4.269531 -6.71875 4.421875 -6.703125 4.546875 -6.703125 C 4.722656 -6.703125 4.867188 -6.726562 4.984375 -6.78125 C 5.097656 -6.832031 5.21875 -6.921875 5.34375 -7.046875 C 5.34375 -7.054688 5.351562 -7.0625 5.375 -7.0625 C 5.382812 -7.0625 5.398438 -7.046875 5.421875 -7.015625 C 5.441406 -6.992188 5.445312 -6.972656 5.4375 -6.953125 C 5.1875 -6.554688 4.976562 -6.289062 4.8125 -6.15625 C 4.644531 -6.019531 4.453125 -5.953125 4.234375 -5.953125 C 4.078125 -5.953125 3.84375 -6 3.53125 -6.09375 C 3.394531 -6.132812 3.25 -6.171875 3.09375 -6.203125 C 2.945312 -6.234375 2.804688 -6.25 2.671875 -6.25 C 2.460938 -6.25 2.316406 -6.226562 2.234375 -6.1875 C 2.148438 -6.144531 2.03125 -6.050781 1.875 -5.90625 Z M 5.609375 -0.96875 C 5.628906 -0.988281 5.640625 -1 5.640625 -1 C 5.671875 -1 5.691406 -0.984375 5.703125 -0.953125 C 5.722656 -0.921875 5.722656 -0.894531 5.703125 -0.875 C 5.421875 -0.53125 5.164062 -0.28125 4.9375 -0.125 C 4.71875 0.03125 4.492188 0.109375 4.265625 0.109375 C 3.859375 0.109375 3.65625 -0.125 3.65625 -0.59375 C 3.65625 -0.71875 3.675781 -0.894531 3.71875 -1.125 L 4.09375 -3.125 C 4.132812 -3.351562 4.15625 -3.539062 4.15625 -3.6875 C 4.15625 -4.09375 4.019531 -4.296875 3.75 -4.296875 C 3.507812 -4.296875 3.265625 -4.144531 3.015625 -3.84375 C 2.765625 -3.539062 2.523438 -3.09375 2.296875 -2.5 C 2.078125 -1.914062 1.894531 -1.210938 1.75 -0.390625 L 1.703125 -0.15625 C 1.660156 0.0078125 1.425781 0.09375 1 0.09375 C 0.726562 0.09375 0.59375 0.0625 0.59375 0 L 0.640625 -0.265625 C 0.722656 -0.660156 0.769531 -0.882812 0.78125 -0.9375 L 1.296875 -3.734375 C 1.316406 -3.804688 1.328125 -3.898438 1.328125 -4.015625 C 1.328125 -4.242188 1.253906 -4.359375 1.109375 -4.359375 C 0.929688 -4.359375 0.6875 -4.1875 0.375 -3.84375 C 0.363281 -3.84375 0.351562 -3.84375 0.34375 -3.84375 C 0.3125 -3.84375 0.285156 -3.851562 0.265625 -3.875 C 0.253906 -3.90625 0.257812 -3.9375 0.28125 -3.96875 C 0.582031 -4.3125 0.851562 -4.5625 1.09375 -4.71875 C 1.332031 -4.882812 1.570312 -4.96875 1.8125 -4.96875 C 2.207031 -4.96875 2.40625 -4.742188 2.40625 -4.296875 C 2.40625 -4.171875 2.390625 -4.035156 2.359375 -3.890625 L 2.15625 -2.734375 C 2.457031 -3.472656 2.796875 -4.035156 3.171875 -4.421875 C 3.554688 -4.816406 3.960938 -5.015625 4.390625 -5.015625 C 4.960938 -5.015625 5.25 -4.664062 5.25 -3.96875 C 5.25 -3.8125 5.226562 -3.609375 5.1875 -3.359375 L 4.78125 -1.125 C 4.75 -1 4.734375 -0.894531 4.734375 -0.8125 C 4.734375 -0.625 4.800781 -0.53125 4.9375 -0.53125 C 5.019531 -0.53125 5.113281 -0.566406 5.21875 -0.640625 C 5.332031 -0.710938 5.460938 -0.820312 5.609375 -0.96875 Z M 5.609375 -0.96875 "/></g></g></g><g fill="#3d3b3a" fill-opacity="1"><g transform="translate(175.581644, 262.353404)"><g><path d="M 5.21875 -0.96875 C 5.226562 -0.976562 5.238281 -0.984375 5.25 -0.984375 C 5.28125 -0.984375 5.300781 -0.96875 5.3125 -0.9375 C 5.332031 -0.90625 5.335938 -0.882812 5.328125 -0.875 C 4.785156 -0.21875 4.3125 0.109375 3.90625 0.109375 C 3.6875 0.109375 3.523438 0.0507812 3.421875 -0.0625 C 3.328125 -0.1875 3.28125 -0.378906 3.28125 -0.640625 C 3.28125 -0.785156 3.296875 -0.945312 3.328125 -1.125 L 3.46875 -1.96875 C 3.15625 -1.300781 2.773438 -0.78125 2.328125 -0.40625 C 1.890625 -0.03125 1.460938 0.15625 1.046875 0.15625 C 0.785156 0.15625 0.578125 0.078125 0.421875 -0.078125 C 0.273438 -0.234375 0.203125 -0.472656 0.203125 -0.796875 C 0.203125 -1.359375 0.390625 -1.972656 0.765625 -2.640625 C 1.140625 -3.304688 1.597656 -3.867188 2.140625 -4.328125 C 2.691406 -4.785156 3.210938 -5.015625 3.703125 -5.015625 C 3.847656 -5.015625 4.003906 -4.988281 4.171875 -4.9375 C 4.335938 -4.882812 4.476562 -4.800781 4.59375 -4.6875 C 4.75 -4.8125 4.878906 -4.957031 4.984375 -5.125 C 4.992188 -5.132812 5.007812 -5.140625 5.03125 -5.140625 C 5.050781 -5.140625 5.070312 -5.128906 5.09375 -5.109375 C 5.125 -5.097656 5.132812 -5.085938 5.125 -5.078125 L 4.40625 -1.125 C 4.375 -1.007812 4.359375 -0.910156 4.359375 -0.828125 C 4.359375 -0.628906 4.421875 -0.53125 4.546875 -0.53125 C 4.703125 -0.53125 4.925781 -0.675781 5.21875 -0.96875 Z M 1.84375 -0.75 C 2.09375 -0.75 2.347656 -0.878906 2.609375 -1.140625 C 2.878906 -1.410156 3.113281 -1.734375 3.3125 -2.109375 C 3.507812 -2.492188 3.640625 -2.851562 3.703125 -3.1875 C 3.722656 -3.320312 3.734375 -3.445312 3.734375 -3.5625 C 3.734375 -3.832031 3.671875 -4.039062 3.546875 -4.1875 C 3.429688 -4.332031 3.265625 -4.40625 3.046875 -4.40625 C 2.660156 -4.40625 2.316406 -4.195312 2.015625 -3.78125 C 1.722656 -3.363281 1.515625 -2.820312 1.390625 -2.15625 C 1.347656 -1.894531 1.328125 -1.695312 1.328125 -1.5625 C 1.328125 -1.28125 1.375 -1.070312 1.46875 -0.9375 C 1.5625 -0.8125 1.6875 -0.75 1.84375 -0.75 Z M 1.84375 -0.75 "/></g></g></g><g fill="#3d3b3a" fill-opacity="1"><g transform="translate(184.936845, 262.353404)"><g><path d="M 4.5625 -1.125 C 4.539062 -1 4.53125 -0.894531 4.53125 -0.8125 C 4.53125 -0.625 4.59375 -0.53125 4.71875 -0.53125 C 4.800781 -0.53125 4.894531 -0.566406 5 -0.640625 C 5.101562 -0.710938 5.234375 -0.820312 5.390625 -0.96875 C 5.398438 -0.988281 5.414062 -1 5.4375 -1 C 5.457031 -1 5.472656 -0.984375 5.484375 -0.953125 C 5.503906 -0.921875 5.503906 -0.894531 5.484375 -0.875 C 5.203125 -0.53125 4.953125 -0.28125 4.734375 -0.125 C 4.515625 0.03125 4.285156 0.109375 4.046875 0.109375 C 3.648438 0.109375 3.453125 -0.128906 3.453125 -0.609375 C 3.453125 -0.773438 3.46875 -0.945312 3.5 -1.125 L 3.65625 -1.984375 C 3.3125 -1.304688 2.941406 -0.78125 2.546875 -0.40625 C 2.160156 -0.03125 1.765625 0.15625 1.359375 0.15625 C 1.035156 0.15625 0.765625 0.0546875 0.546875 -0.140625 C 0.335938 -0.347656 0.234375 -0.660156 0.234375 -1.078125 C 0.234375 -1.242188 0.253906 -1.410156 0.296875 -1.578125 C 0.398438 -2.171875 0.632812 -2.726562 1 -3.25 C 1.375 -3.78125 1.800781 -4.207031 2.28125 -4.53125 C 2.769531 -4.851562 3.242188 -5.015625 3.703125 -5.015625 C 3.890625 -5.015625 4.054688 -4.988281 4.203125 -4.9375 L 4.65625 -7.40625 C 4.675781 -7.570312 4.6875 -7.710938 4.6875 -7.828125 C 4.6875 -8.066406 4.609375 -8.1875 4.453125 -8.1875 C 4.347656 -8.1875 4.171875 -8.128906 3.921875 -8.015625 L 3.90625 -8.015625 C 3.863281 -8.015625 3.835938 -8.035156 3.828125 -8.078125 C 3.828125 -8.128906 3.84375 -8.15625 3.875 -8.15625 L 5.828125 -9.125 L 5.84375 -9.125 C 5.882812 -9.125 5.914062 -9.109375 5.9375 -9.078125 C 5.96875 -9.054688 5.976562 -9.035156 5.96875 -9.015625 Z M 1.984375 -0.71875 C 2.253906 -0.71875 2.515625 -0.84375 2.765625 -1.09375 C 3.023438 -1.34375 3.25 -1.648438 3.4375 -2.015625 C 3.625 -2.378906 3.757812 -2.726562 3.84375 -3.0625 L 3.90625 -3.390625 C 3.945312 -3.710938 3.875 -3.960938 3.6875 -4.140625 C 3.5 -4.316406 3.265625 -4.40625 2.984375 -4.40625 C 2.160156 -4.40625 1.628906 -3.691406 1.390625 -2.265625 C 1.359375 -2.066406 1.34375 -1.859375 1.34375 -1.640625 C 1.34375 -1.023438 1.554688 -0.71875 1.984375 -0.71875 Z M 1.984375 -0.71875 "/></g></g></g><g fill="#3d3b3a" fill-opacity="1"><g transform="translate(194.367459, 262.353404)"><g><path d="M 1.984375 0.171875 C 1.429688 0.171875 1.007812 -0.00390625 0.71875 -0.359375 C 0.4375 -0.710938 0.296875 -1.175781 0.296875 -1.75 C 0.296875 -2 0.316406 -2.222656 0.359375 -2.421875 C 0.441406 -2.929688 0.617188 -3.378906 0.890625 -3.765625 C 1.171875 -4.160156 1.503906 -4.46875 1.890625 -4.6875 C 2.273438 -4.90625 2.6875 -5.015625 3.125 -5.015625 C 3.6875 -5.015625 4.117188 -4.84375 4.421875 -4.5 C 4.722656 -4.164062 4.875 -3.710938 4.875 -3.140625 C 4.875 -2.921875 4.847656 -2.679688 4.796875 -2.421875 C 4.679688 -1.867188 4.476562 -1.394531 4.1875 -1 C 3.90625 -0.613281 3.566406 -0.320312 3.171875 -0.125 C 2.785156 0.0703125 2.390625 0.171875 1.984375 0.171875 Z M 2.421875 -0.140625 C 2.679688 -0.140625 2.910156 -0.289062 3.109375 -0.59375 C 3.304688 -0.90625 3.453125 -1.332031 3.546875 -1.875 C 3.609375 -2.195312 3.640625 -2.53125 3.640625 -2.875 C 3.640625 -3.414062 3.554688 -3.859375 3.390625 -4.203125 C 3.222656 -4.546875 3 -4.71875 2.71875 -4.71875 C 2.46875 -4.71875 2.242188 -4.570312 2.046875 -4.28125 C 1.847656 -3.988281 1.695312 -3.550781 1.59375 -2.96875 C 1.539062 -2.644531 1.515625 -2.3125 1.515625 -1.96875 C 1.515625 -1.425781 1.59375 -0.984375 1.75 -0.640625 C 1.90625 -0.304688 2.128906 -0.140625 2.421875 -0.140625 Z M 2.421875 -0.140625 "/></g></g></g><g fill="#3d3b3a" fill-opacity="1"><g transform="translate(203.270164, 262.353404)"><g><path d="M 3.734375 -4.96875 C 3.953125 -4.96875 4.160156 -4.882812 4.359375 -4.71875 C 4.554688 -4.5625 4.640625 -4.382812 4.609375 -4.1875 C 4.585938 -4.0625 4.523438 -3.941406 4.421875 -3.828125 C 4.328125 -3.722656 4.203125 -3.671875 4.046875 -3.671875 C 3.898438 -3.671875 3.738281 -3.742188 3.5625 -3.890625 C 3.5 -3.929688 3.4375 -3.96875 3.375 -4 C 3.320312 -4.03125 3.265625 -4.046875 3.203125 -4.046875 C 3.066406 -4.046875 2.890625 -3.820312 2.671875 -3.375 C 2.460938 -2.9375 2.265625 -2.410156 2.078125 -1.796875 C 1.890625 -1.179688 1.753906 -0.632812 1.671875 -0.15625 C 1.648438 -0.0703125 1.582031 -0.0078125 1.46875 0.03125 C 1.351562 0.0703125 1.1875 0.09375 0.96875 0.09375 C 0.6875 0.09375 0.546875 0.0625 0.546875 0 C 0.554688 -0.0625 0.582031 -0.1875 0.625 -0.375 C 0.675781 -0.570312 0.71875 -0.757812 0.75 -0.9375 L 1.265625 -3.734375 C 1.285156 -3.867188 1.296875 -3.957031 1.296875 -4 C 1.296875 -4.238281 1.21875 -4.359375 1.0625 -4.359375 C 0.894531 -4.359375 0.660156 -4.1875 0.359375 -3.84375 C 0.347656 -3.84375 0.332031 -3.84375 0.3125 -3.84375 C 0.28125 -3.84375 0.253906 -3.851562 0.234375 -3.875 C 0.222656 -3.90625 0.226562 -3.9375 0.25 -3.96875 C 0.550781 -4.3125 0.820312 -4.5625 1.0625 -4.71875 C 1.300781 -4.882812 1.539062 -4.96875 1.78125 -4.96875 C 1.988281 -4.96875 2.140625 -4.910156 2.234375 -4.796875 C 2.328125 -4.679688 2.375 -4.515625 2.375 -4.296875 C 2.375 -4.171875 2.363281 -4.035156 2.34375 -3.890625 L 2.09375 -2.5 C 2.582031 -4.144531 3.128906 -4.96875 3.734375 -4.96875 Z M 3.734375 -4.96875 "/></g></g></g><g fill="#3d3b3a" fill-opacity="1"><g transform="translate(211.519273, 262.353404)"><g><path d="M 5.21875 -0.96875 C 5.226562 -0.976562 5.238281 -0.984375 5.25 -0.984375 C 5.28125 -0.984375 5.300781 -0.96875 5.3125 -0.9375 C 5.332031 -0.90625 5.335938 -0.882812 5.328125 -0.875 C 4.785156 -0.21875 4.3125 0.109375 3.90625 0.109375 C 3.6875 0.109375 3.523438 0.0507812 3.421875 -0.0625 C 3.328125 -0.1875 3.28125 -0.378906 3.28125 -0.640625 C 3.28125 -0.785156 3.296875 -0.945312 3.328125 -1.125 L 3.46875 -1.96875 C 3.15625 -1.300781 2.773438 -0.78125 2.328125 -0.40625 C 1.890625 -0.03125 1.460938 0.15625 1.046875 0.15625 C 0.785156 0.15625 0.578125 0.078125 0.421875 -0.078125 C 0.273438 -0.234375 0.203125 -0.472656 0.203125 -0.796875 C 0.203125 -1.359375 0.390625 -1.972656 0.765625 -2.640625 C 1.140625 -3.304688 1.597656 -3.867188 2.140625 -4.328125 C 2.691406 -4.785156 3.210938 -5.015625 3.703125 -5.015625 C 3.847656 -5.015625 4.003906 -4.988281 4.171875 -4.9375 C 4.335938 -4.882812 4.476562 -4.800781 4.59375 -4.6875 C 4.75 -4.8125 4.878906 -4.957031 4.984375 -5.125 C 4.992188 -5.132812 5.007812 -5.140625 5.03125 -5.140625 C 5.050781 -5.140625 5.070312 -5.128906 5.09375 -5.109375 C 5.125 -5.097656 5.132812 -5.085938 5.125 -5.078125 L 4.40625 -1.125 C 4.375 -1.007812 4.359375 -0.910156 4.359375 -0.828125 C 4.359375 -0.628906 4.421875 -0.53125 4.546875 -0.53125 C 4.703125 -0.53125 4.925781 -0.675781 5.21875 -0.96875 Z M 1.84375 -0.75 C 2.09375 -0.75 2.347656 -0.878906 2.609375 -1.140625 C 2.878906 -1.410156 3.113281 -1.734375 3.3125 -2.109375 C 3.507812 -2.492188 3.640625 -2.851562 3.703125 -3.1875 C 3.722656 -3.320312 3.734375 -3.445312 3.734375 -3.5625 C 3.734375 -3.832031 3.671875 -4.039062 3.546875 -4.1875 C 3.429688 -4.332031 3.265625 -4.40625 3.046875 -4.40625 C 2.660156 -4.40625 2.316406 -4.195312 2.015625 -3.78125 C 1.722656 -3.363281 1.515625 -2.820312 1.390625 -2.15625 C 1.347656 -1.894531 1.328125 -1.695312 1.328125 -1.5625 C 1.328125 -1.28125 1.375 -1.070312 1.46875 -0.9375 C 1.5625 -0.8125 1.6875 -0.75 1.84375 -0.75 Z M 1.84375 -0.75 "/></g></g></g><g fill="#3d3b3a" fill-opacity="1"><g transform="translate(220.874475, 262.353404)"><g/></g></g><g fill="#3d3b3a" fill-opacity="1"><g transform="translate(227.590133, 262.353404)"><g><path d="M 4 -3.8125 C 4 -3.363281 3.847656 -2.9375 3.546875 -2.53125 C 3.242188 -2.132812 2.851562 -1.835938 2.375 -1.640625 C 2.8125 -1.554688 3.132812 -1.378906 3.34375 -1.109375 C 3.5625 -0.835938 3.671875 -0.519531 3.671875 -0.15625 C 3.671875 -0.03125 3.660156 0.09375 3.640625 0.21875 C 3.566406 0.613281 3.367188 1.007812 3.046875 1.40625 C 2.722656 1.800781 2.269531 2.175781 1.6875 2.53125 C 1.101562 2.894531 0.398438 3.207031 -0.421875 3.46875 C -0.441406 3.476562 -0.460938 3.457031 -0.484375 3.40625 C -0.515625 3.363281 -0.515625 3.335938 -0.484375 3.328125 C 0.398438 2.960938 1.078125 2.492188 1.546875 1.921875 C 2.015625 1.347656 2.300781 0.785156 2.40625 0.234375 C 2.425781 0.0859375 2.4375 -0.0507812 2.4375 -0.1875 C 2.4375 -0.539062 2.347656 -0.816406 2.171875 -1.015625 C 1.992188 -1.222656 1.742188 -1.328125 1.421875 -1.328125 C 1.285156 -1.328125 1.128906 -1.289062 0.953125 -1.21875 L 0.9375 -1.21875 C 0.894531 -1.21875 0.863281 -1.242188 0.84375 -1.296875 C 0.832031 -1.359375 0.847656 -1.394531 0.890625 -1.40625 C 1.453125 -1.5625 1.882812 -1.796875 2.1875 -2.109375 C 2.5 -2.429688 2.703125 -2.878906 2.796875 -3.453125 C 2.835938 -3.671875 2.859375 -3.847656 2.859375 -3.984375 C 2.859375 -4.441406 2.691406 -4.671875 2.359375 -4.671875 C 2.046875 -4.671875 1.738281 -4.546875 1.4375 -4.296875 C 1.132812 -4.046875 0.859375 -3.695312 0.609375 -3.25 C 0.609375 -3.226562 0.585938 -3.21875 0.546875 -3.21875 C 0.523438 -3.21875 0.503906 -3.222656 0.484375 -3.234375 C 0.460938 -3.253906 0.457031 -3.28125 0.46875 -3.3125 L 1.1875 -5.078125 C 1.207031 -5.097656 1.222656 -5.109375 1.234375 -5.109375 C 1.253906 -5.109375 1.273438 -5.097656 1.296875 -5.078125 C 1.316406 -5.066406 1.328125 -5.046875 1.328125 -5.015625 C 1.296875 -4.960938 1.28125 -4.914062 1.28125 -4.875 C 1.28125 -4.78125 1.335938 -4.734375 1.453125 -4.734375 C 1.535156 -4.734375 1.664062 -4.769531 1.84375 -4.84375 C 2.039062 -4.90625 2.207031 -4.945312 2.34375 -4.96875 C 2.476562 -5 2.625 -5.015625 2.78125 -5.015625 C 3.175781 -5.015625 3.476562 -4.898438 3.6875 -4.671875 C 3.894531 -4.441406 4 -4.15625 4 -3.8125 Z M 4 -3.8125 "/></g></g></g><g fill="#3d3b3a" fill-opacity="1"><g transform="translate(235.8141, 262.353404)"><g><path d="M 3.15625 0.046875 C 2.957031 0.046875 2.722656 0.0351562 2.453125 0.015625 C 2.347656 0.00390625 2.21875 -0.00390625 2.0625 -0.015625 C 1.914062 -0.0234375 1.75 -0.03125 1.5625 -0.03125 L 0.734375 -0.015625 C 0.597656 -0.00390625 0.40625 0 0.15625 0 C 0.132812 0 0.125 -0.0234375 0.125 -0.078125 C 0.125 -0.128906 0.132812 -0.15625 0.15625 -0.15625 C 0.394531 -0.15625 0.570312 -0.175781 0.6875 -0.21875 C 0.800781 -0.257812 0.882812 -0.335938 0.9375 -0.453125 C 1 -0.566406 1.054688 -0.753906 1.109375 -1.015625 L 2.140625 -6.84375 C 2.171875 -7.0625 2.1875 -7.195312 2.1875 -7.25 C 2.1875 -7.425781 2.132812 -7.546875 2.03125 -7.609375 C 1.9375 -7.671875 1.765625 -7.703125 1.515625 -7.703125 C 1.492188 -7.703125 1.484375 -7.726562 1.484375 -7.78125 C 1.484375 -7.832031 1.492188 -7.859375 1.515625 -7.859375 L 2.09375 -7.84375 C 2.4375 -7.832031 2.71875 -7.828125 2.9375 -7.828125 C 3.164062 -7.828125 3.40625 -7.835938 3.65625 -7.859375 C 3.988281 -7.878906 4.234375 -7.890625 4.390625 -7.890625 C 5.097656 -7.890625 5.710938 -7.757812 6.234375 -7.5 C 6.765625 -7.25 7.171875 -6.890625 7.453125 -6.421875 C 7.734375 -5.953125 7.875 -5.414062 7.875 -4.8125 C 7.875 -4.53125 7.851562 -4.28125 7.8125 -4.0625 C 7.664062 -3.257812 7.351562 -2.546875 6.875 -1.921875 C 6.40625 -1.296875 5.835938 -0.8125 5.171875 -0.46875 C 4.515625 -0.125 3.84375 0.046875 3.15625 0.046875 Z M 3.109375 -0.203125 C 3.910156 -0.203125 4.609375 -0.515625 5.203125 -1.140625 C 5.796875 -1.773438 6.191406 -2.65625 6.390625 -3.78125 C 6.453125 -4.113281 6.484375 -4.46875 6.484375 -4.84375 C 6.484375 -5.65625 6.304688 -6.320312 5.953125 -6.84375 C 5.597656 -7.375 5.039062 -7.640625 4.28125 -7.640625 C 3.976562 -7.640625 3.765625 -7.578125 3.640625 -7.453125 C 3.515625 -7.328125 3.425781 -7.113281 3.375 -6.8125 L 2.359375 -1.15625 C 2.335938 -1.019531 2.328125 -0.90625 2.328125 -0.8125 C 2.328125 -0.59375 2.382812 -0.4375 2.5 -0.34375 C 2.613281 -0.25 2.816406 -0.203125 3.109375 -0.203125 Z M 3.109375 -0.203125 "/></g></g></g></svg>